<svg xmlns="http://www.w3.org/2000/svg" width="129.653" height="129.653" viewBox="0 0 129.653 129.653"><defs><style>.a,.b{fill:#1dafea;}.a{opacity:0.1;}</style></defs><path class="a" d="M105.343,129.653H24.31A24.308,24.308,0,0,1,0,105.343V24.31A24.308,24.308,0,0,1,24.31,0h81.033a24.308,24.308,0,0,1,24.31,24.31v81.033A24.308,24.308,0,0,1,105.343,129.653Z"/><path class="b" d="M26.19,35.608a2.705,2.705,0,0,1-2.249-1.2l-4.6-6.9H14.035a2.7,2.7,0,1,1,0-5.4H20.79a2.7,2.7,0,0,1,2.249,1.2l2.82,4.23,6.021-12.046A2.7,2.7,0,0,1,34.192,14a2.66,2.66,0,0,1,2.419,1.309l7.317,12.2h5.223a2.7,2.7,0,0,1,0,5.4H42.4A2.706,2.706,0,0,1,40.08,31.6l-5.571-9.286-5.9,11.807A2.691,2.691,0,0,1,26.357,35.6c-.053,0-.109,0-.166,0Z" transform="translate(34.584 42.723)"/><path class="b" d="M68.1,11.333H12.728A4.734,4.734,0,0,0,8,16.061V49.824a4.731,4.731,0,0,0,4.728,4.728H35.012v5.4h-5.4a2.7,2.7,0,0,0,0,5.4H51.219a2.7,2.7,0,1,0,0-5.4h-5.4v-5.4H68.1a4.73,4.73,0,0,0,4.724-4.728V16.061A4.734,4.734,0,0,0,68.1,11.333Zm-.673,37.818H13.4V16.738H67.422V49.151Z" transform="translate(24.413 34.584)"/></svg>