<svg xmlns="http://www.w3.org/2000/svg" width="129.653" height="129.653" viewBox="0 0 129.653 129.653"><defs><style>.a,.b{fill:#1dafea;}.a{opacity:0.1;}</style></defs><path class="a" d="M105.343,129.653H24.31A24.308,24.308,0,0,1,0,105.343V24.31A24.308,24.308,0,0,1,24.31,0h81.033a24.308,24.308,0,0,1,24.31,24.31v81.033A24.308,24.308,0,0,1,105.343,129.653Z"/><path class="b" d="M28.883,44.416H27.534a4.734,4.734,0,0,1-4.728-4.728V33.611H16.728A4.734,4.734,0,0,1,12,28.882V27.533A4.734,4.734,0,0,1,16.728,22.8h6.077V16.727A4.734,4.734,0,0,1,27.534,12h1.349a4.734,4.734,0,0,1,4.728,4.728V22.8h6.077a4.734,4.734,0,0,1,4.728,4.728v1.349a4.734,4.734,0,0,1-4.728,4.728H33.612v6.077A4.736,4.736,0,0,1,28.883,44.416Z" transform="translate(36.62 36.617)"/><g transform="translate(32.413 32.413)"><path class="b" d="M63.966,14l-2.151,2.151A32.011,32.011,0,0,0,40.413,8,32.4,32.4,0,0,0,9.386,49.777a2.03,2.03,0,0,0,1.941,1.442,2.124,2.124,0,0,0,.587-.085,2.026,2.026,0,0,0,1.353-2.524,28.32,28.32,0,0,1,45.687-29.6l-1.738,1.738a2.026,2.026,0,0,0,1.43,3.46H65.4a2.027,2.027,0,0,0,2.026-2.026V15.427A2.029,2.029,0,0,0,63.966,14Z" transform="translate(-8 -8)"/><path class="b" d="M67.373,14.777A2.025,2.025,0,1,0,63.5,15.944,28.358,28.358,0,0,1,36.345,52.5a28.051,28.051,0,0,1-18.54-6.957l1.738-1.738a2.026,2.026,0,0,0-1.43-3.46H11.359a2.027,2.027,0,0,0-2.026,2.026v6.754a2.03,2.03,0,0,0,3.46,1.434l2.151-2.151a32.027,32.027,0,0,0,21.4,8.144A32.4,32.4,0,0,0,67.373,14.777Z" transform="translate(-3.932 8.273)"/></g></svg>